<svg width="300" height="76" viewBox="0 0 300 76" fill="none" xmlns="http://www.w3.org/2000/svg">
<g filter="url(#filter0_d_310_873)">
<path d="M254.752 7C254.752 7 251.179 7.25076 248.234 10.8554H92.9591H91.9004H50.9393C48.0277 7.25076 44.4213 7 44.4213 7L16.8933 7.43883C16.8933 7.43883 40.2855 7.34479 43.6603 7.81496C47.0351 8.28514 48.2262 10.8554 48.2262 10.8554C48.2262 11.7017 49.4504 12.3913 50.9393 12.3913H91.9004H92.9591H248.267C249.756 12.3913 250.98 11.7017 250.98 10.8554C250.98 10.8554 252.171 8.28514 255.546 7.81496C258.888 7.34479 282.28 7.43883 282.28 7.43883L254.752 7Z" fill="#00FFFF"/>
<path d="M45.2809 68.9999C45.2809 68.9999 48.8542 68.7492 51.7989 65.1445H92.76H93.8188H249.127C252.038 68.7492 255.645 68.9999 255.645 68.9999L283.173 68.5611C283.173 68.5611 259.781 68.6552 256.406 68.185C253.031 67.7148 251.84 65.1445 251.84 65.1445C251.84 64.2982 250.616 63.6086 249.127 63.6086H93.7857H92.7269H51.7989C50.31 63.6086 49.0858 64.2982 49.0858 65.1445C49.0858 65.1445 47.8947 67.7148 44.5199 68.185C41.1451 68.6552 17.7529 68.5611 17.7529 68.5611L45.2809 68.9999Z" fill="#39AAFF"/>
<path d="M11.2682 20.8544C10.9704 21.1365 10.6726 21.4499 10.3748 21.7634L9.9447 22.2335C9.81235 22.3903 9.64692 22.547 9.51457 22.7037L9.08445 23.8948L8.98519 24.2083L8.88593 24.5217L8.68741 25.1173C8.42272 25.9322 8.2242 26.7472 8.02568 27.5622L7.76099 28.7846C7.7279 29.004 7.66173 29.1921 7.62864 29.4115L7.52938 30.0384C7.46321 30.4459 7.36395 30.8534 7.29778 31.2922L7.13235 32.546C7.52938 32.9221 7.99259 33.3296 8.45581 33.7684L8.35655 34.6774C8.32346 34.9909 8.32346 35.3043 8.29037 35.5864L8.2242 36.4954L8.19111 37.4358L7.56247 37.8119L8.19111 38.188C8.19111 38.8149 8.2242 39.4418 8.2242 40.0687L8.29037 41.0091L8.32346 41.4792V41.73L8.35655 41.9494C7.89334 42.3569 7.43012 42.7957 7 43.2032L7.03309 43.5167L7.06617 43.8301L7.16543 44.457C7.23161 44.8645 7.26469 45.3033 7.36395 45.7108L7.59556 46.9646L7.86025 48.187C8.2242 49.817 8.65432 51.4469 9.21679 53.0455L9.64692 53.5156L10.077 53.9858C10.3748 54.2993 10.6726 54.6127 10.9373 54.8948C11.6983 56.368 12.5585 57.7785 13.4519 59.1577C14.3783 60.5369 15.3709 61.8534 16.3966 63.1071C15.3378 61.5399 14.4114 59.9413 13.5511 58.28C13.3526 57.8726 13.121 57.4651 12.9225 57.0263L12.6247 56.3994C12.5254 56.1799 12.4262 55.9919 12.3269 55.7725L11.7975 54.4873L11.3012 53.1708C10.6726 51.4155 10.1432 49.6289 9.74618 47.8422C9.64692 47.4034 9.54766 46.9332 9.4484 46.4944L9.21679 45.1152C9.08445 44.2062 8.9521 43.2972 8.88593 42.3569C8.85284 42.0748 8.81976 41.7927 8.81976 41.5106L8.7205 39.9747L8.68741 38.4388C8.68741 38.2194 8.68741 38 8.68741 37.7492V37.0596C8.68741 36.8089 8.68741 36.5581 8.7205 36.3074L8.75358 35.5551L8.78667 34.8028C8.78667 34.552 8.81976 34.3013 8.85284 34.0505L8.9521 33.1102C9.77926 25.8068 12.5254 18.6916 16.8267 12.5793C15.7679 13.8331 14.7422 15.1183 13.7827 16.4974C13.5511 16.8422 13.3195 17.187 13.0879 17.5318L12.757 18.0647L12.4262 18.5975C12.2277 18.9423 11.9961 19.3185 11.7975 19.6633L11.2682 20.8544Z" fill="#39AAFF"/>
<path d="M288.765 20.8544C289.063 21.1365 289.36 21.45 289.658 21.7634L290.088 22.2336C290.221 22.3903 290.386 22.547 290.518 22.7038L290.949 23.8949L291.048 24.2083L291.147 24.5218L291.346 25.1173C291.61 25.9323 291.809 26.7472 292.007 27.5622L292.272 28.7847C292.305 29.0041 292.371 29.1921 292.404 29.4116L292.504 30.0384C292.57 30.4459 292.669 30.8534 292.735 31.2922L292.901 32.546C292.471 32.9849 292.007 33.4237 291.544 33.8312L291.643 34.7402C291.676 35.0536 291.676 35.3671 291.71 35.6492L291.776 36.5582L291.809 37.4985L292.437 37.8746L291.809 38.2508C291.809 38.8777 291.776 39.5046 291.776 40.1315L291.71 41.0718L291.676 41.542V41.7927L291.643 42.0122C292.107 42.4196 292.57 42.8585 293 43.2659L292.967 43.5794L292.934 43.8928L292.834 44.5197C292.768 44.9272 292.735 45.366 292.636 45.7735L292.404 47.0273L292.14 48.2498C291.776 49.8797 291.346 51.5096 290.783 53.1082L290.353 53.5784L289.923 54.0486C289.625 54.362 289.327 54.6755 289.063 54.9576C288.302 56.4308 287.441 57.8413 286.548 59.2204C285.622 60.5996 284.629 61.9161 283.603 63.1699C284.662 61.6026 285.589 60.0041 286.449 58.3428C286.647 57.9353 286.879 57.5278 287.077 57.089L287.375 56.4621C287.474 56.2427 287.574 56.0546 287.673 55.8352L288.202 54.5501L288.699 53.2336C289.327 51.4783 289.857 49.6916 290.254 47.905C290.353 47.4662 290.452 46.996 290.551 46.5572L290.783 45.178C290.915 44.269 291.048 43.36 291.114 42.4196C291.147 42.1375 291.18 41.8554 291.18 41.5733L291.279 40.0374L291.312 38.5015C291.312 38.2821 291.312 38.0627 291.312 37.812V37.1224C291.312 36.8716 291.312 36.6209 291.279 36.3701L291.246 35.6178L291.213 34.8655C291.213 34.6148 291.18 34.364 291.147 34.1133L291.048 33.1729C290.221 25.8696 287.474 18.7543 283.173 12.6421C284.232 13.8959 285.258 15.181 286.217 16.5602C286.449 16.905 286.68 17.2498 286.912 17.5946L287.243 18.1274L287.574 18.6603C287.772 19.0051 288.004 19.3812 288.202 19.726L288.765 20.8544Z" fill="#00FFFF"/>
</g>
<path d="M255.27 17.5222H45.6549C37.597 17.5222 31.0647 23.7448 31.0647 31.4207V43.9585C31.0647 51.6344 37.597 57.857 45.6549 57.857H255.27C263.328 57.857 269.861 51.6344 269.861 43.9585V31.4207C269.861 23.7448 263.328 17.5222 255.27 17.5222Z" fill="url(#paint0_linear_310_873)"/>
<defs>
<filter id="filter0_d_310_873" x="0.527506" y="0.527506" width="298.945" height="74.945" filterUnits="userSpaceOnUse" color-interpolation-filters="sRGB">
<feFlood flood-opacity="0" result="BackgroundImageFix"/>
<feColorMatrix in="SourceAlpha" type="matrix" values="0 0 0 0 0 0 0 0 0 0 0 0 0 0 0 0 0 0 127 0" result="hardAlpha"/>
<feOffset/>
<feGaussianBlur stdDeviation="3.23625"/>
<feComposite in2="hardAlpha" operator="out"/>
<feColorMatrix type="matrix" values="0 0 0 0 1 0 0 0 0 1 0 0 0 0 1 0 0 0 0.8 0"/>
<feBlend mode="normal" in2="BackgroundImageFix" result="effect1_dropShadow_310_873"/>
<feBlend mode="normal" in="SourceGraphic" in2="effect1_dropShadow_310_873" result="shape"/>
</filter>
<linearGradient id="paint0_linear_310_873" x1="31.0647" y1="37.6896" x2="269.861" y2="37.6896" gradientUnits="userSpaceOnUse">
<stop stop-color="white" stop-opacity="0"/>
<stop offset="0.01" stop-color="#F7FCFF" stop-opacity="0.04"/>
<stop offset="0.140625" stop-color="#3CABFF" stop-opacity="0.3"/>
<stop offset="0.494792" stop-color="#0091FF" stop-opacity="0.7"/>
<stop offset="0.822917" stop-color="#3CABFF" stop-opacity="0.3"/>
<stop offset="1" stop-color="white" stop-opacity="0"/>
</linearGradient>
</defs>
</svg>
