<svg width="375" height="70" viewBox="0 0 375 70" fill="none" xmlns="http://www.w3.org/2000/svg">
<g clip-path="url(#clip0_891_2469)">
<path d="M41.0911 69.9086C41.0911 69.9086 46.1319 69.6641 50.2433 66.2355H106.558H108.026H327.364C331.475 69.6641 336.516 69.9086 336.516 69.9086L375.185 69.5001C375.185 69.5001 342.333 69.5806 337.587 69.1334C332.844 68.6832 331.154 66.2355 331.154 66.2355C331.154 65.4245 329.454 64.7656 327.358 64.7656H108.029H106.561H50.2493C48.153 64.7656 46.4537 65.4245 46.4537 66.2355C46.4537 66.2355 44.7634 68.6832 40.0203 69.1334C35.2743 69.5836 2.42188 69.5001 2.42188 69.5001L41.0911 69.9086Z" fill="#39AAFF"/>
</g>
<defs>
<clipPath id="clip0_891_2469">
<rect width="372" height="70" fill="white"/>
</clipPath>
</defs>
</svg>
