<svg width="27" height="42" viewBox="0 0 27 42" fill="none" xmlns="http://www.w3.org/2000/svg">
<path d="M2.64091 9.36755C2.44657 9.56573 2.27065 9.77244 2.08654 9.97914L1.81243 10.2924C1.72037 10.3968 1.62627 10.5012 1.54036 10.6099L1.28465 11.4239L1.22124 11.6264L1.16396 11.831L1.04736 12.2444C0.887803 12.7899 0.767111 13.3482 0.632099 13.9001L0.462312 14.7376C0.435719 14.8783 0.405034 15.0168 0.380487 15.1574L0.310935 15.5794C0.265932 15.8606 0.214791 16.1419 0.175924 16.4232L0.0675057 17.2714C0.335483 17.5697 0.621871 17.8616 0.902122 18.1472L0.844845 18.7737C0.830525 18.9825 0.820297 19.1914 0.810069 19.4023L0.775293 20.031L0.763019 20.6596L0.368213 20.9153L0.754837 21.1796C0.758928 21.6079 0.767111 22.0362 0.777339 22.4624L0.810069 23.1038L0.826434 23.4235L0.834616 23.5833L0.848936 23.7431C0.564593 24.0223 0.282297 24.3078 0 24.6019L0.0184107 24.815L0.0429582 25.0281L0.0940989 25.4522C0.128875 25.7356 0.159559 26.019 0.208654 26.3003L0.34162 27.1442L0.503225 27.9838C0.732335 29.0983 1.00236 30.2064 1.34807 31.2911L1.60786 31.6171L1.87993 31.9346C2.06199 32.1456 2.23996 32.3523 2.42202 32.5569C2.9007 33.5563 3.42234 34.5238 3.98284 35.4614C4.55357 36.3926 5.16521 37.2898 5.81163 38.1507C5.16317 37.0937 4.57403 35.9963 4.05034 34.8669C3.91942 34.5834 3.78646 34.3043 3.66781 34.0145L3.48575 33.584C3.42438 33.4412 3.36301 33.2985 3.30983 33.1514L2.97639 32.2777L2.67364 31.3912C2.28701 30.2043 1.96585 28.9917 1.71424 27.7664C1.65696 27.4596 1.5915 27.1527 1.53831 26.8437L1.39103 25.9146C1.3092 25.2924 1.22738 24.6722 1.18033 24.0457C1.16396 23.8518 1.14351 23.66 1.13328 23.4661L1.07805 22.4262L1.05964 21.3863C1.0535 21.2328 1.06168 21.0773 1.06373 20.9239L1.07191 20.4614C1.076 20.2931 1.07395 20.1226 1.08418 19.9543L1.11078 19.4471L1.13737 18.9399C1.14555 18.7716 1.16601 18.6032 1.18033 18.4349L1.23761 17.8041C1.74901 12.8283 3.45097 8.00159 6.11643 3.84192C5.45774 4.69218 4.82564 5.57441 4.24263 6.49499C4.09535 6.72513 3.95829 6.96167 3.81714 7.19395L3.6044 7.54556L3.40393 7.9057C3.27096 8.1465 3.13595 8.38517 3.00503 8.6281L2.64091 9.36755Z" fill="#39AAFF"/>
<path d="M23.7153 0.749756L9.37354 0.995736C9.37354 0.995736 21.5574 0.947258 23.3171 1.21658C25.0769 1.4877 25.7025 2.96178 25.7025 2.96178C25.7025 3.42681 26.273 3.80745 26.9987 3.84336V2.81814C25.4957 0.891598 23.7153 0.749756 23.7153 0.749756Z" fill="#00FFFF"/>
<path d="M26.9276 38.1508C26.1503 38.1508 25.5194 38.5476 25.5194 39.0359C25.5194 39.0359 24.8921 40.51 23.134 40.7811C21.3743 41.0522 9.19043 41.002 9.19043 41.002L23.5322 41.2479C23.5322 41.2479 25.4022 41.3906 26.9276 39.3258H27V38.1508H26.9276Z" fill="#39AAFF"/>
</svg>
