<svg width="35" height="52" viewBox="0 0 35 52" fill="none" xmlns="http://www.w3.org/2000/svg">
<path d="M3.38756 11.0608C3.13828 11.3152 2.91262 11.5805 2.67646 11.8458L2.32485 12.2479C2.20677 12.3819 2.08606 12.5159 1.97586 12.6554L1.64786 13.7002L1.56652 13.96L1.49305 14.2226L1.34348 14.7532C1.13881 15.4534 0.983993 16.17 0.81081 16.8784L0.59302 17.9533C0.558908 18.1338 0.519548 18.3116 0.48806 18.4921L0.398845 19.0336C0.341118 19.3947 0.275518 19.7557 0.225662 20.1167L0.0865914 21.2053C0.430333 21.5882 0.79769 21.9629 1.15718 22.3294L1.0837 23.1335C1.06534 23.4016 1.05222 23.6696 1.0391 23.9404L0.994489 24.7472L0.978745 25.5541L0.472317 25.8823L0.968249 26.2214C0.973497 26.7712 0.983993 27.3209 0.997113 27.868L1.0391 28.6912L1.06009 29.1015L1.07058 29.3066L1.08895 29.5117C0.724219 29.87 0.362109 30.2365 0 30.614L0.0236158 30.8875L0.0551036 31.161L0.120703 31.7053C0.165311 32.0691 0.204671 32.4328 0.267646 32.7939L0.438205 33.8769L0.645499 34.9546C0.939385 36.385 1.28575 37.8073 1.7292 39.1994L2.06245 39.6179L2.41144 40.0254C2.64497 40.2962 2.87326 40.5615 3.10679 40.8241C3.7208 42.1068 4.38992 43.3486 5.10889 44.552C5.84098 45.7472 6.62555 46.8987 7.45473 48.0037C6.62293 46.6471 5.86722 45.2385 5.19548 43.7889C5.02755 43.4251 4.85699 43.0668 4.7048 42.6949L4.47126 42.1424C4.39254 41.9591 4.31382 41.7759 4.2456 41.5872L3.81789 40.4658L3.42954 39.328C2.93361 37.8045 2.52165 36.2483 2.1989 34.6756C2.12542 34.2817 2.04146 33.8879 1.97323 33.4913L1.78431 32.2988C1.67935 31.5002 1.57439 30.7042 1.51404 29.9001C1.49305 29.6512 1.46681 29.4051 1.45369 29.1562L1.38284 27.8215L1.35922 26.4867C1.35135 26.2898 1.36185 26.0902 1.36447 25.8932L1.37497 25.2997C1.38021 25.0836 1.37759 24.8648 1.39071 24.6488L1.42482 23.9978L1.45893 23.3469C1.46943 23.1308 1.49567 22.9147 1.51404 22.6986L1.58751 21.8891C2.2435 15.5026 4.42666 9.30764 7.8457 3.96875C7.00078 5.06005 6.18997 6.19238 5.44214 7.37394C5.25321 7.66933 5.0774 7.97292 4.89635 8.27104L4.62345 8.72234L4.3663 9.18456C4.19575 9.49363 4.02256 9.79996 3.85463 10.1118L3.38756 11.0608Z" fill="#39AAFF"/>
<path d="M30.42 0L12.0234 0.315712C12.0234 0.315712 27.652 0.253492 29.9093 0.599162C32.1665 0.947137 32.9691 2.83911 32.9691 2.83911C32.9691 3.43596 33.7009 3.92451 34.6316 3.9706V2.65475C32.7038 0.182053 30.42 0 30.42 0Z" fill="#00FFFF"/>
<path d="M34.541 48.0039C33.5439 48.0039 32.7347 48.5132 32.7347 49.14C32.7347 49.14 31.9299 51.032 29.6749 51.38C27.4176 51.7279 11.7891 51.6634 11.7891 51.6634L30.1856 51.9791C30.1856 51.9791 32.5844 52.1622 34.541 49.5121H34.6338V48.0039H34.541Z" fill="#39AAFF"/>
</svg>
